<svg xmlns="http://www.w3.org/2000/svg" viewBox="0 0 24 24" width="24" height="24" fill="none" stroke="currentColor" stroke-width="1.75" stroke-linecap="round" stroke-linejoin="round"><path d="M4.5 11.6c-.5-2 .5-3.8 2.6-4.6 1.5-.6 2.7-.2 4.4-.7 1.8-.5 2.7-1.7 4.6-1.6 2 .1 3.9 1.1 4.4 2.9.3 1.3-.3 2.4-1.2 3.2.6.8.8 1.8.4 2.8-.7 1.7-2.8 2.2-4.9 2.2-1.5 0-2.6-.4-4.2-.2-1.9.2-3.9.6-5.5-.4-1.3-.8-1.9-2-1.6-3.5Z"/><path d="M5 12.2c1.7 1.1 4 1.6 6.4 1.7 2.6.1 5-.4 6.9-1.5"/><path d="M8.7 8.2 7.4 10M12 7.7 10.7 9.5M15.2 8 13.9 9.8"/></svg>
